<svg width="100" height="100" viewBox="0 0 100 100" fill="none" xmlns="http://www.w3.org/2000/svg">
<g clip-path="url(#clip0_6010_121)">
<path d="M14.1894 50.284C13.2727 50.284 12.4553 50.0907 11.7374 49.7041C11.0304 49.3065 10.4727 48.7653 10.064 48.0804C9.66635 47.3846 9.46753 46.5893 9.46753 45.6946C9.46753 44.7889 9.6553 43.9937 10.0308 43.3088C10.4174 42.613 10.9476 42.0718 11.6214 41.6852C12.2951 41.2875 13.0683 41.0887 13.9409 41.0887C14.8024 41.0887 15.5425 41.282 16.161 41.6686C16.7796 42.0442 17.249 42.5688 17.5693 43.2426C17.9007 43.9053 18.0663 44.6729 18.0663 45.5455C18.0663 45.7554 17.9946 45.9321 17.851 46.0757C17.7074 46.2083 17.5251 46.2745 17.3042 46.2745H10.6273V44.9491H17.2545L16.5752 45.413C16.5642 44.8607 16.4537 44.3692 16.2439 43.9384C16.034 43.4966 15.7358 43.1487 15.3492 42.8946C14.9626 42.6406 14.4932 42.5136 13.9409 42.5136C13.3113 42.5136 12.7701 42.6516 12.3172 42.9278C11.8754 43.2039 11.5385 43.585 11.3066 44.071C11.0746 44.5459 10.9587 45.0871 10.9587 45.6946C10.9587 46.3021 11.0967 46.8434 11.3729 47.3183C11.649 47.7933 12.0301 48.1688 12.5161 48.4449C13.002 48.7211 13.5598 48.8591 14.1894 48.8591C14.5318 48.8591 14.8798 48.7984 15.2332 48.6769C15.5977 48.5443 15.8904 48.3952 16.1113 48.2296C16.277 48.1081 16.4537 48.0473 16.6415 48.0473C16.8403 48.0363 17.0115 48.0915 17.1551 48.213C17.3429 48.3787 17.4423 48.5609 17.4533 48.7597C17.4644 48.9586 17.376 49.1298 17.1882 49.2733C16.8127 49.5716 16.3433 49.8146 15.78 50.0023C15.2277 50.1901 14.6975 50.284 14.1894 50.284Z" fill="black"/>
<path d="M27.8762 50.2343C27.6332 50.2343 27.4288 50.157 27.2632 50.0023C27.1085 49.8367 27.0312 49.6323 27.0312 49.3893V45.3136C27.0312 44.684 26.9152 44.1704 26.6833 43.7728C26.4513 43.3751 26.1365 43.0824 25.7389 42.8946C25.3523 42.6958 24.905 42.5964 24.3969 42.5964C23.933 42.5964 23.5133 42.6903 23.1377 42.8781C22.7622 43.0658 22.464 43.3199 22.243 43.6402C22.0221 43.9495 21.9117 44.3085 21.9117 44.7171H20.8679C20.8679 44.0213 21.0336 43.4027 21.3649 42.8615C21.7073 42.3092 22.1713 41.8729 22.7567 41.5526C23.3421 41.2323 23.9993 41.0722 24.7283 41.0722C25.4904 41.0722 26.1697 41.2378 26.7661 41.5692C27.3736 41.8895 27.8486 42.3645 28.191 42.9941C28.5444 43.6236 28.7212 44.3968 28.7212 45.3136V49.3893C28.7212 49.6323 28.6383 49.8367 28.4726 50.0023C28.318 50.157 28.1192 50.2343 27.8762 50.2343ZM21.0667 50.2343C20.8237 50.2343 20.6194 50.157 20.4537 50.0023C20.2991 49.8367 20.2217 49.6323 20.2217 49.3893V42C20.2217 41.7459 20.2991 41.5416 20.4537 41.387C20.6194 41.2323 20.8237 41.155 21.0667 41.155C21.3208 41.155 21.5251 41.2323 21.6797 41.387C21.8344 41.5416 21.9117 41.7459 21.9117 42V49.3893C21.9117 49.6323 21.8344 49.8367 21.6797 50.0023C21.5251 50.157 21.3208 50.2343 21.0667 50.2343Z" fill="black"/>
<path d="M34.0787 50.2012C33.7363 50.2012 33.4712 50.0189 33.2835 49.6544L29.771 42.2485C29.6827 42.0607 29.6716 41.8785 29.7379 41.7017C29.8152 41.514 29.9588 41.3704 30.1687 41.271C30.3564 41.1716 30.5442 41.155 30.732 41.2213C30.9308 41.2875 31.0799 41.4146 31.1793 41.6023L34.4598 48.6769H33.6645L36.9119 41.6023C37.0113 41.4146 37.1604 41.2875 37.3592 41.2213C37.5691 41.155 37.7789 41.1716 37.9888 41.271C38.1876 41.3593 38.3201 41.4974 38.3864 41.6852C38.4527 41.8729 38.4416 42.0607 38.3533 42.2485L34.8408 49.6544C34.6752 50.0189 34.4211 50.2012 34.0787 50.2012Z" fill="black"/>
<path d="M43.5444 50.284C42.7381 50.284 42.0146 50.0852 41.374 49.6875C40.7333 49.2789 40.2252 48.7321 39.8497 48.0473C39.4852 47.3514 39.303 46.5672 39.303 45.6946C39.303 44.8221 39.5018 44.0378 39.8994 43.342C40.3081 42.6461 40.8548 42.0994 41.5396 41.7017C42.2355 41.2931 43.0142 41.0887 43.8757 41.0887C44.7373 41.0887 45.5105 41.2931 46.1953 41.7017C46.8801 42.0994 47.4213 42.6461 47.8189 43.342C48.2276 44.0378 48.432 44.8221 48.432 45.6946H47.7858C47.7858 46.5672 47.598 47.3514 47.2225 48.0473C46.858 48.7321 46.3554 49.2789 45.7148 49.6875C45.0742 50.0852 44.3507 50.284 43.5444 50.284ZM43.8757 48.7929C44.4391 48.7929 44.9416 48.6603 45.3834 48.3952C45.8252 48.1191 46.1732 47.7491 46.4272 47.2852C46.6813 46.8102 46.8083 46.28 46.8083 45.6946C46.8083 45.0982 46.6813 44.568 46.4272 44.1041C46.1732 43.6292 45.8252 43.2591 45.3834 42.9941C44.9416 42.7179 44.4391 42.5799 43.8757 42.5799C43.3235 42.5799 42.8209 42.7179 42.368 42.9941C41.9262 43.2591 41.5728 43.6292 41.3077 44.1041C41.0536 44.568 40.9266 45.0982 40.9266 45.6946C40.9266 46.28 41.0536 46.8102 41.3077 47.2852C41.5728 47.7491 41.9262 48.1191 42.368 48.3952C42.8209 48.6603 43.3235 48.7929 43.8757 48.7929ZM47.587 50.2343C47.344 50.2343 47.1396 50.157 46.974 50.0023C46.8193 49.8367 46.742 49.6323 46.742 49.3893V46.8544L47.0568 45.0982L48.432 45.6946V49.3893C48.432 49.6323 48.3491 49.8367 48.1834 50.0023C48.0288 50.157 47.83 50.2343 47.587 50.2343Z" fill="black"/>
<path d="M55.0559 50.284C54.1944 50.284 53.4157 50.0852 52.7198 49.6875C52.035 49.2789 51.4883 48.7266 51.0796 48.0307C50.682 47.3349 50.4832 46.5507 50.4832 45.6781C50.4832 44.8055 50.6654 44.0268 51.0299 43.342C51.4054 42.6461 51.9135 42.0994 52.5542 41.7017C53.1948 41.2931 53.9183 41.0887 54.7246 41.0887C55.3763 41.0887 55.9782 41.2268 56.5305 41.5029C57.0828 41.768 57.5467 42.1325 57.9222 42.5964V38.123C57.9222 37.869 57.9995 37.6647 58.1542 37.51C58.3198 37.3554 58.5242 37.2781 58.7672 37.2781C59.0212 37.2781 59.2256 37.3554 59.3802 37.51C59.5348 37.6647 59.6122 37.869 59.6122 38.123V45.6781C59.6122 46.5507 59.4078 47.3349 58.9991 48.0307C58.6015 48.7266 58.0603 49.2789 57.3755 49.6875C56.6907 50.0852 55.9175 50.284 55.0559 50.284ZM55.0559 48.7929C55.6193 48.7929 56.1218 48.6603 56.5636 48.3952C57.0054 48.1191 57.3534 47.7436 57.6074 47.2686C57.8615 46.7937 57.9885 46.2635 57.9885 45.6781C57.9885 45.0816 57.8615 44.5514 57.6074 44.0875C57.3534 43.6236 57.0054 43.2591 56.5636 42.9941C56.1218 42.7179 55.6193 42.5799 55.0559 42.5799C54.5037 42.5799 54.0011 42.7179 53.5482 42.9941C53.1064 43.2591 52.753 43.6236 52.4879 44.0875C52.2338 44.5514 52.1068 45.0816 52.1068 45.6781C52.1068 46.2635 52.2338 46.7937 52.4879 47.2686C52.753 47.7436 53.1064 48.1191 53.5482 48.3952C54.0011 48.6603 54.5037 48.7929 55.0559 48.7929Z" fill="black"/>
<path d="M64.1825 50.2177C64.0057 50.2177 63.8401 50.168 63.6854 50.0686C63.5418 49.9582 63.4424 49.8256 63.3872 49.671L60.9351 42.3148C60.8468 41.9724 60.8468 41.6962 60.9351 41.4864C61.0345 41.2655 61.2444 41.155 61.5647 41.155C61.7746 41.155 61.9458 41.2157 62.0783 41.3372C62.2219 41.4477 62.3379 41.641 62.4263 41.9171L64.5138 48.4449H63.9339L65.9055 41.7846C65.9608 41.5968 66.0547 41.4477 66.1872 41.3372C66.3197 41.2157 66.502 41.155 66.734 41.155C66.9549 41.155 67.1316 41.2157 67.2641 41.3372C67.4077 41.4477 67.5016 41.5968 67.5458 41.7846L69.1529 48.0473H68.9044L70.8594 41.9171C71.014 41.409 71.3012 41.155 71.7209 41.155C72.0302 41.155 72.2401 41.2655 72.3505 41.4864C72.461 41.6962 72.4554 41.9724 72.334 42.3148L69.8819 49.671C69.8377 49.8256 69.7438 49.9582 69.6002 50.0686C69.4566 50.168 69.291 50.2177 69.1032 50.2177C68.9265 50.2177 68.7608 50.168 68.6061 50.0686C68.4515 49.9582 68.3521 49.8256 68.3079 49.671L66.6014 43.3585H66.7671L64.9777 49.671C64.9336 49.8256 64.8341 49.9582 64.6795 50.0686C64.5359 50.168 64.3702 50.2177 64.1825 50.2177Z" fill="black"/>
<path d="M78.0832 50.284C77.1664 50.284 76.3491 50.0907 75.6311 49.7041C74.9242 49.3065 74.3664 48.7653 73.9577 48.0804C73.5601 47.3846 73.3613 46.5893 73.3613 45.6946C73.3613 44.7889 73.5491 43.9937 73.9246 43.3088C74.3112 42.613 74.8414 42.0718 75.5151 41.6852C76.1889 41.2875 76.9621 41.0887 77.8347 41.0887C78.6962 41.0887 79.4363 41.282 80.0548 41.6686C80.6733 42.0442 81.1428 42.5688 81.4631 43.2426C81.7944 43.9053 81.9601 44.6729 81.9601 45.5455C81.9601 45.7554 81.8883 45.9321 81.7447 46.0757C81.6011 46.2083 81.4189 46.2745 81.198 46.2745H74.5211V44.9491H81.1483L80.469 45.413C80.4579 44.8607 80.3475 44.3692 80.1376 43.9384C79.9278 43.4966 79.6295 43.1487 79.243 42.8946C78.8564 42.6406 78.3869 42.5136 77.8347 42.5136C77.2051 42.5136 76.6639 42.6516 76.211 42.9278C75.7692 43.2039 75.4323 43.585 75.2004 44.071C74.9684 44.5459 74.8524 45.0871 74.8524 45.6946C74.8524 46.3021 74.9905 46.8434 75.2666 47.3183C75.5428 47.7933 75.9238 48.1688 76.4098 48.4449C76.8958 48.7211 77.4536 48.8591 78.0832 48.8591C78.4256 48.8591 78.7735 48.7984 79.127 48.6769C79.4915 48.5443 79.7842 48.3952 80.0051 48.2296C80.1708 48.1081 80.3475 48.0473 80.5353 48.0473C80.7341 48.0363 80.9053 48.0915 81.0489 48.213C81.2366 48.3787 81.3361 48.5609 81.3471 48.7597C81.3581 48.9586 81.2698 49.1298 81.082 49.2733C80.7065 49.5716 80.237 49.8146 79.6737 50.0023C79.1215 50.1901 78.5913 50.284 78.0832 50.284Z" fill="black"/>
<path d="M85.7392 54.1941C85.6287 54.1941 85.4962 54.1609 85.3416 54.0946C84.8556 53.8737 84.723 53.5258 84.9439 53.0509L89.9972 41.6355C90.2181 41.1716 90.566 41.039 91.041 41.2378C91.538 41.4477 91.6761 41.7956 91.4552 42.2816L86.3853 53.6804C86.2528 54.0229 86.0374 54.1941 85.7392 54.1941ZM87.6942 49.8532C87.4844 49.9416 87.2855 49.9526 87.0978 49.8864C86.921 49.809 86.7774 49.6655 86.667 49.4556L82.8729 42.2485C82.7625 42.0386 82.7459 41.8398 82.8232 41.652C82.9116 41.4532 83.0607 41.3096 83.2705 41.2213C83.4804 41.1329 83.6792 41.1274 83.867 41.2047C84.0548 41.271 84.1984 41.409 84.2978 41.6189L87.9262 48.826C88.0366 49.0359 88.0753 49.2402 88.0421 49.439C88.0201 49.6268 87.9041 49.7649 87.6942 49.8532Z" fill="black"/>
<path d="M44.6297 2.77783H10.6251C6.29116 2.77783 2.77783 6.29116 2.77783 10.6251V68.1713C2.77783 72.5054 6.29116 76.0186 10.6251 76.0186H89.0973C93.4313 76.0186 96.9445 72.5054 96.9445 68.1713V44.6297" stroke="black" stroke-width="8" stroke-linecap="round" stroke-linejoin="round"/>
<path d="M49.8611 76.0186V96.9445" stroke="black" stroke-width="8" stroke-linecap="round" stroke-linejoin="round"/>
<path d="M23.7039 96.9445H76.0187" stroke="black" stroke-width="8" stroke-linecap="round" stroke-linejoin="round"/>
<path d="M74.1876 2.77783C69.4204 2.77783 65.5557 6.53071 65.5557 11.1601C65.5557 19.5424 75.7571 27.1625 81.2501 28.9352C86.7432 27.1625 96.9446 19.5424 96.9446 11.1601C96.9446 6.53071 93.0798 2.77783 88.3126 2.77783C85.3932 2.77783 82.8122 4.1852 81.2501 6.33942C79.688 4.1852 77.107 2.77783 74.1876 2.77783Z" fill="#2F88FF" stroke="black" stroke-width="6" stroke-linecap="round" stroke-linejoin="round"/>
</g>
<defs>
<clipPath id="clip0_6010_121">
<rect width="100" height="100" fill="white"/>
</clipPath>
</defs>
</svg>
